<mxfile host="app.diagrams.net" modified="2023-10-12T02:29:00.063Z" agent="Mozilla/5.0 (Windows NT 10.0; Win64; x64) AppleWebKit/537.36 (KHTML, like Gecko) Chrome/117.0.0.0 Safari/537.36" etag="tWtHyEBodoKj4iD66nVu" version="22.0.4" type="device">
  <diagram name="Page-1" id="pj16aIfnCAy9Q5xtaLx8">
    <mxGraphModel dx="1221" dy="657" grid="1" gridSize="10" guides="1" tooltips="1" connect="1" arrows="1" fold="1" page="1" pageScale="1" pageWidth="850" pageHeight="1100" math="0" shadow="0">
      <root>
        <mxCell id="0" />
        <mxCell id="1" parent="0" />
        <mxCell id="7zo_4rqjjSQZh-WX64Ld-1" value="Event Online Ticket" style="swimlane;whiteSpace=wrap;html=1;" parent="1" vertex="1">
          <mxGeometry x="200" y="20" width="440" height="660" as="geometry" />
        </mxCell>
        <mxCell id="7zo_4rqjjSQZh-WX64Ld-29" value="" style="rounded=0;orthogonalLoop=1;jettySize=auto;html=1;dashed=1;" parent="7zo_4rqjjSQZh-WX64Ld-1" source="7zo_4rqjjSQZh-WX64Ld-6" target="7zo_4rqjjSQZh-WX64Ld-27" edge="1">
          <mxGeometry relative="1" as="geometry" />
        </mxCell>
        <mxCell id="7zo_4rqjjSQZh-WX64Ld-6" value="Login" style="ellipse;whiteSpace=wrap;html=1;" parent="7zo_4rqjjSQZh-WX64Ld-1" vertex="1">
          <mxGeometry x="159" y="150" width="115" height="50" as="geometry" />
        </mxCell>
        <mxCell id="7zo_4rqjjSQZh-WX64Ld-10" value="" style="rounded=0;orthogonalLoop=1;jettySize=auto;html=1;dashed=1;entryX=0;entryY=1;entryDx=0;entryDy=0;" parent="7zo_4rqjjSQZh-WX64Ld-1" source="7zo_4rqjjSQZh-WX64Ld-8" target="7zo_4rqjjSQZh-WX64Ld-6" edge="1">
          <mxGeometry relative="1" as="geometry" />
        </mxCell>
        <mxCell id="7zo_4rqjjSQZh-WX64Ld-16" value="" style="rounded=0;orthogonalLoop=1;jettySize=auto;html=1;dashed=1;entryX=0;entryY=0;entryDx=0;entryDy=0;" parent="7zo_4rqjjSQZh-WX64Ld-1" source="7zo_4rqjjSQZh-WX64Ld-8" target="7zo_4rqjjSQZh-WX64Ld-15" edge="1">
          <mxGeometry relative="1" as="geometry" />
        </mxCell>
        <mxCell id="7zo_4rqjjSQZh-WX64Ld-8" value="View Event" style="ellipse;whiteSpace=wrap;html=1;" parent="7zo_4rqjjSQZh-WX64Ld-1" vertex="1">
          <mxGeometry x="36.5" y="250" width="115" height="50" as="geometry" />
        </mxCell>
        <mxCell id="7zo_4rqjjSQZh-WX64Ld-11" value="&amp;lt;Include&amp;gt;" style="text;html=1;strokeColor=none;fillColor=none;align=center;verticalAlign=middle;whiteSpace=wrap;rounded=0;" parent="7zo_4rqjjSQZh-WX64Ld-1" vertex="1">
          <mxGeometry x="76.5" y="220" width="60" height="20" as="geometry" />
        </mxCell>
        <mxCell id="7zo_4rqjjSQZh-WX64Ld-20" style="rounded=0;orthogonalLoop=1;jettySize=auto;html=1;entryX=0.5;entryY=0;entryDx=0;entryDy=0;dashed=1;" parent="7zo_4rqjjSQZh-WX64Ld-1" source="7zo_4rqjjSQZh-WX64Ld-15" target="7zo_4rqjjSQZh-WX64Ld-18" edge="1">
          <mxGeometry relative="1" as="geometry" />
        </mxCell>
        <mxCell id="7zo_4rqjjSQZh-WX64Ld-15" value="Buy Ticket" style="ellipse;whiteSpace=wrap;html=1;" parent="7zo_4rqjjSQZh-WX64Ld-1" vertex="1">
          <mxGeometry x="159" y="350" width="115" height="50" as="geometry" />
        </mxCell>
        <mxCell id="7zo_4rqjjSQZh-WX64Ld-17" value="&amp;lt;extends&amp;gt;" style="text;html=1;strokeColor=none;fillColor=none;align=center;verticalAlign=middle;whiteSpace=wrap;rounded=0;" parent="7zo_4rqjjSQZh-WX64Ld-1" vertex="1">
          <mxGeometry x="79" y="320" width="60" height="20" as="geometry" />
        </mxCell>
        <mxCell id="7zo_4rqjjSQZh-WX64Ld-18" value="Transfer Payment" style="ellipse;whiteSpace=wrap;html=1;" parent="7zo_4rqjjSQZh-WX64Ld-1" vertex="1">
          <mxGeometry x="159" y="450" width="115" height="50" as="geometry" />
        </mxCell>
        <mxCell id="7zo_4rqjjSQZh-WX64Ld-22" value="&amp;lt;Include&amp;gt;" style="text;html=1;strokeColor=none;fillColor=none;align=center;verticalAlign=middle;whiteSpace=wrap;rounded=0;" parent="7zo_4rqjjSQZh-WX64Ld-1" vertex="1">
          <mxGeometry x="151.5" y="410" width="60" height="20" as="geometry" />
        </mxCell>
        <mxCell id="7zo_4rqjjSQZh-WX64Ld-25" value="Manage Profile" style="ellipse;whiteSpace=wrap;html=1;" parent="7zo_4rqjjSQZh-WX64Ld-1" vertex="1">
          <mxGeometry x="159" y="540" width="115" height="50" as="geometry" />
        </mxCell>
        <mxCell id="7zo_4rqjjSQZh-WX64Ld-27" value="Register" style="ellipse;whiteSpace=wrap;html=1;" parent="7zo_4rqjjSQZh-WX64Ld-1" vertex="1">
          <mxGeometry x="70" y="40" width="115" height="50" as="geometry" />
        </mxCell>
        <mxCell id="7zo_4rqjjSQZh-WX64Ld-30" value="&amp;lt;Include&amp;gt;" style="text;html=1;strokeColor=none;fillColor=none;align=center;verticalAlign=middle;whiteSpace=wrap;rounded=0;" parent="7zo_4rqjjSQZh-WX64Ld-1" vertex="1">
          <mxGeometry x="110" y="110" width="60" height="20" as="geometry" />
        </mxCell>
        <mxCell id="7zo_4rqjjSQZh-WX64Ld-31" style="edgeStyle=orthogonalEdgeStyle;rounded=0;orthogonalLoop=1;jettySize=auto;html=1;exitX=0.5;exitY=1;exitDx=0;exitDy=0;" parent="7zo_4rqjjSQZh-WX64Ld-1" source="7zo_4rqjjSQZh-WX64Ld-30" target="7zo_4rqjjSQZh-WX64Ld-30" edge="1">
          <mxGeometry relative="1" as="geometry" />
        </mxCell>
        <mxCell id="7zo_4rqjjSQZh-WX64Ld-33" style="rounded=0;orthogonalLoop=1;jettySize=auto;html=1;entryX=1;entryY=1;entryDx=0;entryDy=0;dashed=1;" parent="7zo_4rqjjSQZh-WX64Ld-1" source="7zo_4rqjjSQZh-WX64Ld-32" target="7zo_4rqjjSQZh-WX64Ld-6" edge="1">
          <mxGeometry relative="1" as="geometry" />
        </mxCell>
        <mxCell id="7zo_4rqjjSQZh-WX64Ld-32" value="Manage Event" style="ellipse;whiteSpace=wrap;html=1;" parent="7zo_4rqjjSQZh-WX64Ld-1" vertex="1">
          <mxGeometry x="290" y="250" width="115" height="50" as="geometry" />
        </mxCell>
        <mxCell id="7zo_4rqjjSQZh-WX64Ld-34" value="&amp;lt;Include&amp;gt;" style="text;html=1;strokeColor=none;fillColor=none;align=center;verticalAlign=middle;whiteSpace=wrap;rounded=0;" parent="7zo_4rqjjSQZh-WX64Ld-1" vertex="1">
          <mxGeometry x="280" y="220" width="60" height="20" as="geometry" />
        </mxCell>
        <mxCell id="7zo_4rqjjSQZh-WX64Ld-12" style="rounded=0;orthogonalLoop=1;jettySize=auto;html=1;entryX=0;entryY=0.5;entryDx=0;entryDy=0;" parent="1" target="7zo_4rqjjSQZh-WX64Ld-6" edge="1">
          <mxGeometry relative="1" as="geometry">
            <mxPoint x="120" y="160" as="sourcePoint" />
          </mxGeometry>
        </mxCell>
        <mxCell id="7zo_4rqjjSQZh-WX64Ld-13" style="rounded=0;orthogonalLoop=1;jettySize=auto;html=1;entryX=0;entryY=0.5;entryDx=0;entryDy=0;" parent="1" target="7zo_4rqjjSQZh-WX64Ld-8" edge="1">
          <mxGeometry relative="1" as="geometry">
            <mxPoint x="120" y="160" as="sourcePoint" />
          </mxGeometry>
        </mxCell>
        <mxCell id="7zo_4rqjjSQZh-WX64Ld-26" style="rounded=0;orthogonalLoop=1;jettySize=auto;html=1;entryX=0;entryY=0.5;entryDx=0;entryDy=0;" parent="1" target="7zo_4rqjjSQZh-WX64Ld-25" edge="1">
          <mxGeometry relative="1" as="geometry">
            <mxPoint x="120" y="160" as="sourcePoint" />
          </mxGeometry>
        </mxCell>
        <mxCell id="7zo_4rqjjSQZh-WX64Ld-2" value="User" style="shape=umlActor;verticalLabelPosition=bottom;verticalAlign=top;html=1;" parent="1" vertex="1">
          <mxGeometry x="90" y="130" width="30" height="60" as="geometry" />
        </mxCell>
        <mxCell id="7zo_4rqjjSQZh-WX64Ld-23" style="rounded=0;orthogonalLoop=1;jettySize=auto;html=1;entryX=1;entryY=0.5;entryDx=0;entryDy=0;" parent="1" source="7zo_4rqjjSQZh-WX64Ld-3" target="7zo_4rqjjSQZh-WX64Ld-6" edge="1">
          <mxGeometry relative="1" as="geometry" />
        </mxCell>
        <mxCell id="7zo_4rqjjSQZh-WX64Ld-37" style="rounded=0;orthogonalLoop=1;jettySize=auto;html=1;entryX=1;entryY=0.5;entryDx=0;entryDy=0;" parent="1" target="7zo_4rqjjSQZh-WX64Ld-32" edge="1">
          <mxGeometry relative="1" as="geometry">
            <mxPoint x="720" y="160" as="sourcePoint" />
          </mxGeometry>
        </mxCell>
        <mxCell id="7zo_4rqjjSQZh-WX64Ld-38" style="rounded=0;orthogonalLoop=1;jettySize=auto;html=1;entryX=1;entryY=0.5;entryDx=0;entryDy=0;" parent="1" target="7zo_4rqjjSQZh-WX64Ld-25" edge="1">
          <mxGeometry relative="1" as="geometry">
            <mxPoint x="720" y="160" as="sourcePoint" />
          </mxGeometry>
        </mxCell>
        <mxCell id="7zo_4rqjjSQZh-WX64Ld-3" value="Admin" style="shape=umlActor;verticalLabelPosition=bottom;verticalAlign=top;html=1;" parent="1" vertex="1">
          <mxGeometry x="720" y="130" width="30" height="60" as="geometry" />
        </mxCell>
      </root>
    </mxGraphModel>
  </diagram>
</mxfile>
